# xmcd CD database file
#
# Track frame offsets:
#       150
#       14175
#       30370
#       53243
#       71105
#       91345
#       109103
#       124648
#       147368
#       163940
#       181083
#       196875
#       211420
#
# Disc length: 3119 seconds
#
# Revision: 1
# Processed by: cddbd v1.4PL0 Copyright (c) Steve Scherf et al.
# Submitted via: jack 2.99.7
#
DISCID=b90c2d0d
DTITLE=Priscilla Engle - Ageless Love
DYEAR=1900
DGENRE=
TTITLE0=Ageless Love
TTITLE1=Nothing But Jesus
TTITLE2=He Is Still A Father
TTITLE3=Just Believe
TTITLE4=No Need
TTITLE5=He's Leading The Way
TTITLE6=There You Are
TTITLE7=River To The Throne
TTITLE8=Follow You
TTITLE9=Fire Of The Holy Spirit
TTITLE10=To Live Is Christ
TTITLE11=Don't Dance
TTITLE12=Kingdom Love
EXTD=
EXTT0=
EXTT1=
EXTT2=
EXTT3=
EXTT4=
EXTT5=
EXTT6=
EXTT7=
EXTT8=
EXTT9=
EXTT10=
EXTT11=
EXTT12=
PLAYORDER=
